<?xml version="1.0" encoding="utf-8"?>
<!-- Generator: Adobe Illustrator 25.0.0, SVG Export Plug-In . SVG Version: 6.00 Build 0)  -->
<svg version="1.1" xmlns="http://www.w3.org/2000/svg" xmlns:xlink="http://www.w3.org/1999/xlink" x="0px" y="0px"
	 viewBox="0 0 508.8 179.1" style="enable-background:new 0 0 508.8 179.1;" xml:space="preserve">
<style type="text/css">
	.st0{display:none;}
	.st1{display:inline;fill:#1A1A1A;}
	.st2{fill:#FFFFFF;}
</style>
<g id="Layer_3" class="st0">
	<rect x="-55.7" y="-84.9" class="st1" width="620.2" height="348.9"/>
</g>
<g id="Layer_1" class="st0">
	
		<image style="display:inline;overflow:visible;" width="1125" height="413" xlink:href="../AD-logo.jpg"  transform="matrix(0.48 0 0 0.48 -15.5957 -9.5455)">
	</image>
</g>
<g id="Layer_1_copy">
	<g>
		<path class="st2" d="M280.4,45.9c-6.4-6.2-13.3-10.5-21.3-13.2c-6-2.1-12.2-3.1-18.6-3.1c-12.4,0-24.8,0-37.2,0
			c-1.4,0-2.4,0.1-2.4,2c0.1,24.6,0,49.1,0,73.7c0,0.2,0.1,0.5,0.2,1.2c7.6-9.1,17.6-13.5,28.2-17c-3.8,2.6-7.8,4.9-11.5,7.8
			c-11.1,8.8-17,20.1-16.9,34.4c0,3,0.1,5.9,0,8.9c0,1.3,0.5,1.8,1.8,1.8c5.1-0.1,10.2,0,15.4,0c1,0,2,0.1,3,0.6
			c4.7,2.8,9.5,5.6,14.3,8.4c1.2,0.7,1.5,1.1,0.4,2.2c-3.7,4-7.3,8.1-10.9,12.2c-0.7,0.8-1.4,1.2-2.5,1.2c-15.7,0-31.4,0-47,0
			c-1.5,0-1.9-0.5-1.9-1.9c0.1-2.6,0-5.3,0-7.9c0-49.7,0-99.3-0.1-149c0-2.3,0.5-2.9,2.9-2.9c21.6,0.1,43.2,0,64.8,0.1
			c13.2,0.1,25.9,2.7,37.9,8.4c1,0.5,2.1,0.7,2,2.3C280.9,25.6,280.7,35.5,280.4,45.9z"/>
		<path class="st2" d="M266.2,97.2c4.7-3.2,9.2-6.8,13.7-10.4c13.2-10.8,17.8-24.4,13.8-41c-2-8.4-3.9-16.8-5.9-25.2
			c-0.2-0.8-0.6-1.5-0.3-2.3c24.5,14.2,41.9,46.1,34.9,83.9c-7.4,39.7-40.4,61.7-74.1,64.2c2.3-1.9,4.3-3.5,6.3-5.1
			c8-6,12.6-13.9,13.6-23.8c0.1-1.2,0.4-2.2,1.6-3c19.4-12.1,27.2-30.1,26.2-52.5c-0.1-1.2-0.2-2.5-0.3-4.3
			c-8.2,9.4-18.3,15.1-29,19.8C266.5,97.4,266.4,97.3,266.2,97.2z"/>
		<path class="st2" d="M241.7,91.3c0.8-0.9,0-1.7-0.3-2.4c-2.9-8.4-5.5-16.9-5.7-25.9c-0.2-11.8,4.7-21,14.2-27.8
			c0.6-0.5,1.3-1.6,2.2-0.9c0.8,0.6,0.9,1.6,0.7,2.6c-0.2,0.8-0.4,1.7-0.6,2.5c-1.5,0.9-3,1.9-3.4,3.7c-1.3,1.2-2.5,2.5-3,4.3
			c-1.3,1.2-1.4,3.1-2.5,4.4c-0.3,1.5-0.6,3-1,4.5c0,1.7,0,3.3-0.1,5c-0.2,1.7,0,3.4,0.3,5.1c0.4,1.9,0.8,3.7,1.2,5.6
			c0.8,1.9,0.4,4.3,2.4,5.8c-0.1,1.9-0.5,3.9,1.4,5.2c-0.2,1.8,0.9,3.2,1.5,4.8c0.6,1.1,0.9,2.3,1,3.5c0.2,1.4,0.8,2.8,2.3,3.6
			c-0.6,1.2,0.3,2.2,0.7,3.1c3.3,8.8,6.6,17.7,7.7,27.1c1.7,14.2-2.8,25.6-14.9,33.7c-2.8,1.9-5.6,3.6-8.5,5.5
			c-0.6,0.4-1.2,0.9-2.1,0.6c3.2-3.6,6.3-7.1,9.4-10.6c0.8-0.9,1.2-1.5-0.2-2.3c-9.8-5.6-19.5-11.3-29.2-17
			c-0.6-0.6-1.3-1.2-1.9-1.7c-1.2-1-1.1-2.3-0.8-3.5c0.4-1.4,1.7-0.6,2.6-0.8c2,2.1,4.6,3.1,7,4.5c8.4,5,17,9.9,25.4,15
			c2.3,1.4,2.4-0.6,3.3-1.6c1.1-1.2,0.5-1.8-0.7-2.5c-10.8-6.3-21.6-12.7-32.5-19c-0.6-0.3-0.9-0.6-1.7-1.1
			c-0.7-0.4-0.9-0.6-2.1-1.3c-1.5-0.5-1-3.4,0.4-4.1c1.1-0.5,1.8,0.9,2.8,0.5c3.8,2.9,8.1,5,12.2,7.5c7.4,4.4,14.9,8.8,22.3,13.1
			c0.5,0.3,1.2,1.4,2,0.3c1.3-1.7,0.7-4.3-1.2-5.4c-10.5-6.1-21-12.3-31.4-18.4c-0.6-0.4-1.2-0.9-2-0.8c-0.1-0.7-0.6-0.8-1.1-1.1
			c-1.1-0.9-2.3-2-1.5-3.5c0.8-1.6,2-1.3,3.4-0.4c0.8,0.5,1.6,1.4,2.8,1.1c0.4,0.3,0.7,0.7,1.1,0.9c9.9,5.8,19.8,11.6,29.8,17.4
			c0.2,0.1,0.6,0.2,0.9,0.3c0.2-3.6-0.7-6.1-4.2-8c-7.5-3.9-14.7-8.5-22-12.7c-0.8-0.4-1.5-1-2.4-1c-0.5-0.6-1.1-1.1-1.5-1.8
			c-0.7-1-0.7-2,0.2-3c0.8-0.9,1.4-0.8,2.4-0.2c1.2,0.7,2.4,1.6,3.9,1.5c-0.1,0.4,0.1,0.7,0.5,0.9c6.7,3.9,13.4,7.8,20.2,11.7
			c0.2,0.2,0.4,0.2,0.5,0c0,0-0.1-0.2-0.2-0.3c-0.6-3.5-1.6-6.4-5.3-8.1c-3.9-1.8-7.5-4.3-11.2-6.5c-0.1-0.2-0.2-0.4-0.4-0.6
			c-0.8-0.9-2.2-1.6-1-3.1c1.2-1.4,2.3-1.1,3.7-0.2c0.8,0.6,1.8,0.9,2.7,1.3c2,1.4,4.1,2.7,6.9,4c-0.9-2.3-1.7-4.1-2.4-6
			c0.2-2-1.8-3.3-1.8-5.2C243.1,92.1,242.4,91.8,241.7,91.3z"/>
		<path class="st2" d="M243.2,52c1.1-1.3,1.2-3.2,2.5-4.4c2.7,0.8,5.3,1.7,8,2.5c9.5,3,19,6.1,28.5,9.1c0.7,0.2,1.5,1,2.1,0.1
			c1.3-1.7,0.4-4.3-1.7-5c-2-0.6-3.9-1.3-5.9-1.9c-9.3-3-18.6-6.1-28-9.1c0.5-1.9,1.9-2.8,3.4-3.7c10.1,3.2,20.3,6.5,30.4,9.7
			c2.6,0.8,2.7,0.8,2.7-1.9c0-4.9,0-9.7,0-15.2c1.1,1.1,1,2,1.2,2.8c1.2,5.4,2.9,10.7,3.4,16.2c1.3,12.9-3.6,23.1-13.7,30.9
			c-7.3,5.6-15.5,9.5-24,13c-1.5-0.7-2.1-2.2-2.3-3.6c-0.2-1.3-0.5-2.4-1-3.5c1.7-0.7,3.4-1.4,5.6-2.4c-2.8-1-4.9-1.7-7-2.4
			c-1.9-1.3-1.5-3.3-1.4-5.2c3.8,1.2,7.7,2.1,11.4,3.6c3.7,1.6,6.3-0.1,9.3-2.2c-8-2.4-15.4-5.2-23.2-7.2c-0.4-1.9-0.8-3.7-1.2-5.6
			c8.7,2.8,17.5,5.6,26.2,8.4c4.1,1.3,4.9,1.1,7.7-2.6c-11.5-3.6-22.8-7.3-34.2-10.9c0-1.7,0-3.3,0.1-5c7.4,2.3,14.8,4.7,22.1,7
			c4.9,1.5,9.7,3.1,14.6,4.6c2.5,0.8,2.5-1.7,3.3-2.9c0.9-1.5-0.9-1.3-1.6-1.5c-7.7-2.5-15.5-5.1-23.3-7.5
			C252.7,54.8,248.1,52.9,243.2,52z"/>
		<path class="st2" d="M217.2,119.6c-1.1,0.4-1.8-1-2.8-0.5c-1.5,0.7-1.8,3.3-0.4,4.1c0.8,0.5,1.2,0.7,2,1.2
			c-0.1,1.3-0.6,3.6-0.7,4.8c-0.9,0.1-2.2-0.7-2.6,0.8c-0.3,1.2-0.4,2.5,0.8,3.5c0.7,0.5,1.3,1.1,1.9,1.7c-0.1,0.3-0.2,0.6-0.3,0.9
			c-0.5,1.4-1.3,2.9-2.9,2.7c-1.5-0.2-1.1-1.9-1.2-3c-2.4-14.2,2-25.8,13.6-34.5c5.4-4,11.2-7.3,17.4-9.9c0.7,0.5,1.4,0.7,1.5,1.9
			c0,1.9,2,3.2,1.8,5.2c-1.5,0.7-3,1.3-4.5,2c-0.9-0.4-1.9-0.7-2.7-1.3c-1.3-1-2.5-1.2-3.7,0.2c-1.2,1.5,0.2,2.2,1,3.1
			c0.2,0.2,0.3,0.4,0.4,0.6c-1.5,0.8-3,1.5-4.5,2.3c-1.5,0.1-2.7-0.9-3.9-1.5c-1-0.6-1.7-0.6-2.4,0.2c-0.9,1-0.9,2-0.2,3
			c0.4,0.6,1,1.2,1.5,1.8c-1.1,1-2.1,2.1-3.2,3.1c-1.2,0.2-2-0.7-2.8-1.1c-1.4-0.9-2.6-1.1-3.4,0.4c-0.7,1.5,0.5,2.6,1.5,3.5
			c0.4,0.3,1,0.5,1.1,1.1C218.5,117.1,217.8,118.3,217.2,119.6z"/>
		<path class="st2" d="M357.5,163.7c-1.4,0.8-2.4,1.7-3.7,2c-4,0.8-7.7-0.7-9.4-4c-2-3.7-1.4-8.7,1.3-11.4c2.6-2.6,6.8-3.1,10.4-1
			c0.8,0.5,1.3,1,1.8-0.5c0.5-1.4,2.1-0.6,3.2-0.6c1.1,0,0.8,1,0.8,1.7c0,5.2,0.1,10.4,0,15.6c-0.1,4-2.6,6.9-6.5,7.8
			c-3.2,0.8-6.3,0.3-9.3-1.1c-1-0.5-1.9-0.9-0.9-2.3c0.7-1,1.1-1.9,2.5-0.8c1.4,1,3.1,1.3,4.8,1.2C356,170,357.8,167.9,357.5,163.7z
			 M357.7,157c0-3.2-2.2-5.7-5.2-5.7c-3-0.1-5.3,2.3-5.4,5.5c-0.1,3.3,2.2,5.8,5.3,5.8C355.4,162.7,357.7,160.3,357.7,157z"/>
		<path class="st2" d="M44,164.7c-5,3.2-9.6,3-12.7-0.5c-3-3.5-3.1-9.8-0.2-13.3c3-3.6,7.7-3.8,13-0.5c0-2.7,0.1-5.2,0-7.7
			c-0.1-2.1,1.2-1.7,2.5-1.8c1.3-0.1,2.2,0,2.2,1.8c-0.1,7.2,0,14.4-0.1,21.6c0,0.9,0.9,2.5-1.1,2.5C46.1,166.8,43.9,167.7,44,164.7
			z M44.2,157.4c-0.1-3.2-2.3-5.6-5.3-5.6c-3.1,0-5.3,2.5-5.2,5.9c0.1,3.2,2.4,5.6,5.4,5.5C42.1,163.1,44.3,160.6,44.2,157.4z"/>
		<path class="st2" d="M23.1,159.9c0,1.7,0,3.4,0,5c0,0.6,0.4,1.7-0.6,1.7c-1.3,0.1-3.1,0.8-3.7-0.5c-0.6-1.3-0.9-0.8-1.6-0.4
			c-2.3,1.3-4.7,1.6-7.2,0.8c-2.6-0.8-4-2.9-4-5.6c0.1-2.5,1.4-4.2,4-5c2.3-0.7,4.6-0.4,6.9-0.4c1.9,0,1.8-0.9,1.1-2.1
			c-0.6-1.2-1.7-1.6-3-1.8c-1.6-0.2-3.3,0-4.6,0.9c-1.6,1-2.1,0.2-2.8-1.1c-1-1.8,0.6-1.8,1.5-2.2c2.8-1.3,5.8-1.7,8.9-1
			c3.2,0.7,4.8,2.7,5,5.9C23.1,156.1,23,158,23.1,159.9C23,159.9,23.1,159.9,23.1,159.9z M13.6,163.4c1.8,0,3.3-0.5,4.4-1.9
			c0.5-0.7,0.6-1.5,0.4-2.3c-0.3-1-1.2-0.6-1.8-0.6c-1.1,0-2.2-0.1-3.3,0c-1.4,0.2-3,0.4-2.9,2.4C10.5,163,12,163.4,13.6,163.4z"/>
		<path class="st2" d="M94.2,159.7c0,1.5,0.1,3,0,4.6c-0.1,0.8,0.6,2.3-0.7,2.4c-1.2,0-3.1,1.3-3.9-0.9c-0.4-1-0.9-0.2-1.2,0
			c-2.1,1.3-4.3,1.6-6.7,1.1c-3-0.7-4.7-2.9-4.6-5.8c0.1-2.7,1.8-4.7,4.8-5.1c2-0.3,4-0.2,6-0.3c0.6,0,1.4,0.3,1.7-0.5
			c0.2-0.6-0.1-1.3-0.4-1.8c-0.7-1-1.7-1.4-2.9-1.5c-1.6-0.2-3.2,0.1-4.6,0.9c-1.4,0.8-2,0.4-2.7-0.9c-0.9-1.6,0.2-1.9,1.2-2.4
			c2.6-1.2,5.4-1.6,8.2-1.2c3.6,0.5,5.7,2.7,5.9,6.4C94.2,156.2,94.1,157.9,94.2,159.7C94.1,159.7,94.1,159.7,94.2,159.7z
			 M86.5,158.6c-0.6,0-1,0-1.4,0c-1.7,0.1-3.6,0-3.7,2.4c-0.1,1.7,1.6,2.7,4.2,2.4c0.3,0,0.6-0.1,0.9-0.2c1.7-0.6,3.2-1.5,3-3.5
			C89.3,157.4,87.3,159.2,86.5,158.6z"/>
		<path class="st2" d="M158,147.9c5.7,0.1,9.1,3.9,8.8,9.6c-0.1,1.2-0.5,1.5-1.6,1.4c-3.4,0-6.9,0-10.3,0c-0.5,0-1.2-0.3-1.5,0.3
			c-0.3,0.7,0.2,1.2,0.5,1.7c1.6,2.3,5.2,3,7.9,1.1c1.9-1.4,2.6-0.1,3.4,1c1,1.4-0.7,1.7-1.4,2.2c-3.6,2.4-8.7,2.2-12-0.2
			c-3-2.2-4.3-6.2-3.3-10.3C149.6,150.5,153.2,147.9,158,147.9z M157.5,156c1.2,0,2.4-0.1,3.6,0c1.5,0.1,1.5-0.7,1.1-1.8
			c-0.7-1.6-1.9-2.5-3.7-2.7c-2-0.2-3.6,0.4-4.8,2c-0.4,0.6-1,1.3-0.7,1.9c0.3,0.9,1.2,0.4,1.9,0.4C155.8,156.1,156.7,156,157.5,156
			z"/>
		<path class="st2" d="M106.2,151.3c2.2-2.4,4.1-3.3,6.5-3.4c4.3-0.1,7,2.3,7.2,6.6c0.2,3.6,0,7.2,0.1,10.8c0,2.2-1.5,1.3-2.5,1.4
			c-1.1,0.1-2.2,0.2-2.1-1.6c0.1-2.6,0-5.3,0-7.9c0-3.2-1.3-4.9-3.9-5c-2.8-0.1-4.9,1.9-5.1,4.9c-0.1,2.6-0.2,5.1,0,7.7
			c0.2,2.3-1.3,1.8-2.6,1.9c-1.4,0.1-2.2-0.1-2.1-1.9c0.1-4.7,0-9.4,0.1-14.1c0-1.2-0.7-2.8,1.7-2.8
			C105.4,148,106.9,148,106.2,151.3z"/>
		<path class="st2" d="M337.1,159.8c0,1.5,0.1,3,0,4.6c0,0.8,0.5,2.1-0.6,2.3c-1.1,0.2-2.7,0.9-3.5-0.8c-0.5-1.2-1-0.1-1.4,0.1
			c-2.2,1.2-4.6,1.4-7,0.7c-2.6-0.7-4.2-2.8-4.2-5.4c0-2.7,1.5-4.5,4.3-5.3c2.2-0.6,4.5-0.4,6.7-0.3c1.8,0,1.8-0.8,1.3-2.1
			c-0.8-1.9-2.5-2.1-4.2-2.1c-1.3,0-2.6,0.3-3.7,1c-1.4,0.9-2,0.4-2.7-0.8c-0.9-1.6,0.4-1.8,1.2-2.2c2.8-1.4,5.8-1.7,8.9-1
			c3,0.7,4.7,2.7,4.9,5.7C337.1,156,337,157.9,337.1,159.8C337,159.8,337.1,159.8,337.1,159.8z M328.8,158.6c-0.3,0-1.3,0-2.2,0.1
			c-1.2,0.2-2.3,0.7-2.3,2.2c0,1.4,0.8,2.3,2,2.6c1.9,0.5,3.8,0.2,5.4-1.1c1-0.8,1.6-1.9,1.2-3.1c-0.4-1.2-1.6-0.5-2.5-0.7
			C330.1,158.5,329.7,158.6,328.8,158.6z"/>
		<path class="st2" d="M373.8,151.3c2.7-2.9,5.4-3.7,8.4-3.2c3.1,0.5,5,2.4,5.5,5.5c0.5,4,0.1,8,0.2,12c0,1.8-1.4,1.1-2.3,1.2
			c-0.9,0.1-2,0.4-1.9-1.3c0.1-2.8,0-5.6,0-8.4c0-3.5-1.3-5.1-4.2-5.2c-3-0.1-5.1,1.9-5.3,5c-0.2,2.6-0.2,5.3,0,7.9
			c0.1,1.9-0.8,2-2.3,2c-1.7,0.1-2-0.6-1.9-2.1c0.1-4.6,0-9.3,0.1-13.9c0-1-0.9-2.7,1.4-2.8C373.1,148.1,374.8,147.9,373.8,151.3z"
			/>
		<path class="st2" d="M413.4,157.6c0,5.5-4,9.4-9.7,9.4c-5.9,0-9.9-3.9-9.8-9.7c0.1-5.5,4.1-9.3,9.8-9.3
			C409.5,148,413.5,151.9,413.4,157.6z M409.3,157.5c0-3.5-2.2-5.9-5.5-6c-3.4-0.1-5.7,2.4-5.7,6c0,3.5,2.3,5.9,5.6,5.8
			C407,163.4,409.3,161,409.3,157.5z"/>
		<path class="st2" d="M126,157.1c0-3.4,1.4-6.4,4.8-8.1c3.6-1.8,7.3-1.5,10.7,0.7c0.7,0.4,2.3,0.9,1.1,2.2
			c-0.8,0.9-1.5,2.5-3.4,1.1c-1.9-1.4-4.2-1.6-6.3-0.3c-2.1,1.3-2.5,3.4-2.2,5.7c0.5,4.2,4.9,5.9,8.8,3.4c0.6-0.4,1-1.2,2-0.5
			c2,1.4,2.2,2.2,0.2,3.6c-3.4,2.4-7.2,2.6-10.9,0.9C127.4,164.2,126,161.2,126,157.1z"/>
		<path class="st2" d="M64.2,161.4c1.2-3.7,2.5-7.3,3.7-11c0.8-2.3,2.2-3,4.5-2.4c0.9,0.2,0.7,0.7,0.5,1.2c-2.1,5.5-4.3,11-6.3,16.5
			c-0.5,1.5-1.7,1-2.6,1c-1,0-2.3,0.6-2.9-0.9c-2.1-5.5-4.2-11-6.4-16.5c-0.2-0.4-0.4-0.9,0.2-1.2c1.5-0.8,4.2,0.2,4.8,1.9
			c1.3,3.8,2.6,7.6,3.9,11.4C63.9,161.4,64.1,161.4,64.2,161.4z"/>
		<path class="st2" d="M425.3,167c-1.8-0.1-3.8-0.5-5.7-1.4c-1.3-0.6-1.7-1.3-0.9-2.8c0.8-1.6,1.5-0.7,2.4-0.3
			c1.6,0.8,3.3,1.4,5.1,1.2c1.1-0.1,2.1-0.3,2.4-1.6c0.2-1.3-0.6-1.9-1.7-2.3c-1.6-0.6-3.2-1.1-4.7-1.7c-2.3-0.9-3.4-2.6-3.2-5.1
			c0.2-2.5,1.7-3.9,3.9-4.6c2.7-0.8,5.4-0.4,8,0.6c0.9,0.4,1.8,0.8,1,2.1c-0.6,1-0.8,2.1-2.4,1.2c-1.3-0.7-2.8-1.1-4.4-1
			c-1,0.1-2,0.5-2.1,1.6c-0.2,1.1,0.7,1.6,1.5,1.9c1,0.4,2.1,0.7,3.2,1.1c4,1.3,5.5,3.2,5,6.2C432.1,165.1,429.5,166.9,425.3,167z"
			/>
		<path class="st2" d="M496.4,147.9c1.7,0.1,3.3,0.3,4.8,1c0.9,0.4,2,0.6,1.3,2.2c-0.7,1.4-1.2,1.8-2.7,1.1
			c-1.4-0.7-2.9-1.1-4.4-0.8c-0.9,0.1-1.7,0.5-1.8,1.6c-0.1,1,0.6,1.5,1.3,1.8c1.2,0.5,2.4,0.9,3.6,1.3c3.6,1.2,5,3,4.8,5.9
			c-0.2,2.8-2.2,4.5-5.9,4.9c-2.6,0.3-5.1-0.3-7.4-1.5c-1.3-0.7-1.3-1.4-0.7-2.7c0.7-1.4,1.3-0.9,2.2-0.4c1.6,1,3.4,1.5,5.3,1.3
			c1.1-0.1,2.2-0.4,2.4-1.6c0.2-1.2-0.6-1.9-1.7-2.3c-1.2-0.4-2.4-0.8-3.6-1.2c-3.2-1.2-4.5-2.9-4.3-5.5c0.2-2.7,2-4.4,5.3-4.9
			C495.4,148,496,148,496.4,147.9z"/>
		<path class="st2" d="M466.8,157.2c0.1-3.5,1.4-6.5,4.8-8.1c3.7-1.8,7.4-1.5,10.9,0.7c0.7,0.5,1.9,1,0.8,2.2
			c-0.7,0.8-1.2,2.1-2.8,0.9c-2.2-1.6-4.8-1.8-7.2-0.2c-2.1,1.4-2.6,3.7-2.2,6.2c0.7,4.2,5.4,6.1,9.4,3.4c1.5-1,2.2-0.5,3.1,0.5
			c1.1,1.4-0.4,1.8-1.1,2.3c-3.5,2.3-7.2,2.6-10.9,0.8C468.1,164.2,466.8,161.1,466.8,157.2z"/>
		<path class="st2" d="M445.6,167c-3.5,0-5.5-1.8-5.7-5c-0.1-2.6,0-5.3,0-7.9c0-1.2,0.1-2.3-1.6-2.1c-0.9,0.1-1.1-0.5-1-1.2
			c0.1-0.7-0.3-1.8,0.6-1.8c2.8,0.1,2.1-1.9,2-3.3c-0.1-1.7,0.6-2,2.1-2c1.5,0,2.1,0.4,2,2c-0.1,3.7-0.1,3.1,3.3,3.1
			c1,0,2.3-0.4,2.3,1.5c0,1.2-0.3,1.6-1.6,1.7c-3.9,0.1-4,0.2-3.9,4.1c0,1.6,0,3.2,0,4.8c0.1,1.8,1.1,2.7,2.9,2.1
			c1.4-0.4,2.1-0.4,2.6,1.2c0.5,1.9-0.8,2-1.9,2.3C446.8,166.9,446,166.9,445.6,167z"/>
		<path class="st2" d="M313.4,157.5c0,2.5-0.1,5.1,0,7.6c0.1,1.5-0.7,1.7-1.9,1.6c-1.1-0.1-2.2,0.3-2.2-1.6c0.1-5.2,0.1-10.3,0-15.5
			c0-1.7,1-1.5,2-1.5c1,0,2.1-0.2,2.1,1.4C313.3,152.3,313.4,154.9,313.4,157.5z"/>
		<path class="st2" d="M456,157.5c0-2.5,0.1-5.1,0-7.6c-0.1-1.7,0.9-1.7,2.1-1.7c1.3,0,2.1,0.1,2,1.7c-0.1,5-0.1,10,0,15.1
			c0,1.6-0.6,1.8-2,1.8c-1.4,0-2.3-0.1-2.2-1.9C456.1,162.4,456,160,456,157.5z"/>
		<path class="st2" d="M458.1,140.5c1.5,0.1,2.3,1,2.3,2.5c0,1.5-0.9,2.4-2.4,2.3c-1.5-0.1-2.3-1-2.3-2.5
			C455.7,141.3,456.6,140.5,458.1,140.5z"/>
		<path class="st2" d="M313.7,142.7c0,1.6-0.8,2.5-2.3,2.6c-1.5,0.1-2.4-0.9-2.5-2.3c-0.1-1.4,0.7-2.4,2.3-2.5
			C312.8,140.5,313.6,141.3,313.7,142.7z"/>
		<path class="st2" d="M266.2,97.2c0.2,0.1,0.4,0.2,0.6,0.3c-1.6,0.8-3.2,1.3-4.7,2.1C263.4,98.7,264.8,97.9,266.2,97.2z"/>
	</g>
</g>
</svg>
