<?xml version="1.0" encoding="utf-8"?>
<!-- Generator: Adobe Illustrator 25.0.0, SVG Export Plug-In . SVG Version: 6.00 Build 0)  -->
<svg version="1.1" xmlns="http://www.w3.org/2000/svg" xmlns:xlink="http://www.w3.org/1999/xlink" x="0px" y="0px"
	 viewBox="0 0 275 200" style="enable-background:new 0 0 275 200;" xml:space="preserve">
<style type="text/css">
	.st0{display:none;}
	.st1{display:inline;fill:#1A1A1A;}
	.st2{fill:#66605F;}
	.st3{fill:#C63539;}
</style>
<g id="Layer_3" class="st0">
	<rect x="-172.6" y="-74.4" class="st1" width="620.2" height="348.9"/>
</g>
<g id="Layer_1" class="st0">
	
		<image style="display:inline;overflow:visible;" width="1125" height="413" xlink:href="../AD-logo.jpg"  transform="matrix(0.48 0 0 0.48 -132.5 0.88)">
	</image>
</g>
<g id="Layer_1_copy">
	<g>
		<path class="st2" d="M150.4,78.3c-3.2-3.1-6.7-5.3-10.6-6.6c-3-1-6.1-1.6-9.3-1.6c-6.2,0-12.4,0-18.6,0c-0.7,0-1.2,0-1.2,1
			c0,12.3,0,24.6,0,36.8c0,0.1,0,0.2,0.1,0.6c3.8-4.5,8.8-6.7,14.1-8.5c-1.9,1.3-3.9,2.4-5.7,3.9c-5.6,4.4-8.5,10.1-8.5,17.2
			c0,1.5,0,3,0,4.4c0,0.7,0.2,0.9,0.9,0.9c2.6,0,5.1,0,7.7,0c0.5,0,1,0,1.5,0.3c2.4,1.4,4.7,2.8,7.1,4.2c0.6,0.3,0.7,0.6,0.2,1.1
			c-1.8,2-3.6,4-5.4,6.1c-0.3,0.4-0.7,0.6-1.2,0.6c-7.8,0-15.7,0-23.5,0c-0.8,0-1-0.3-0.9-1c0-1.3,0-2.6,0-4c0-24.8,0-49.7,0-74.5
			c0-1.1,0.3-1.5,1.4-1.5c10.8,0,21.6,0,32.4,0c6.6,0,12.9,1.4,18.9,4.2c0.5,0.2,1,0.3,1,1.1C150.6,68.1,150.5,73.1,150.4,78.3z"/>
		<path class="st3" d="M143.3,103.9c2.4-1.6,4.6-3.4,6.8-5.2c6.6-5.4,8.9-12.2,6.9-20.5c-1-4.2-2-8.4-2.9-12.6
			c-0.1-0.4-0.3-0.7-0.2-1.2c12.3,7.1,20.9,23,17.4,42c-3.7,19.9-20.2,30.9-37,32.1c1.2-0.9,2.1-1.8,3.2-2.5c4-3,6.3-6.9,6.8-11.9
			c0.1-0.6,0.2-1.1,0.8-1.5c9.7-6.1,13.6-15.1,13.1-26.2c0-0.6-0.1-1.2-0.2-2.2c-4.1,4.7-9.1,7.6-14.5,9.9
			C143.4,104,143.3,104,143.3,103.9z"/>
		<path class="st2" d="M131,101c0.4-0.5,0-0.8-0.2-1.2c-1.5-4.2-2.8-8.4-2.8-12.9c-0.1-5.9,2.4-10.5,7.1-13.9
			c0.3-0.2,0.6-0.8,1.1-0.4c0.4,0.3,0.5,0.8,0.4,1.3c-0.1,0.4-0.2,0.8-0.3,1.3c-0.8,0.4-1.5,0.9-1.7,1.9c-0.7,0.6-1.3,1.3-1.5,2.2
			c-0.7,0.6-0.7,1.6-1.3,2.2c-0.2,0.8-0.3,1.5-0.5,2.3c0,0.8,0,1.7,0,2.5c-0.1,0.9,0,1.7,0.1,2.6c0.2,0.9,0.4,1.9,0.6,2.8
			c0.4,1,0.2,2.2,1.2,2.9c0,0.9-0.2,1.9,0.7,2.6c-0.1,0.9,0.4,1.6,0.7,2.4c0.3,0.6,0.4,1.1,0.5,1.8c0.1,0.7,0.4,1.4,1.1,1.8
			c-0.3,0.6,0.1,1.1,0.3,1.6c1.7,4.4,3.3,8.8,3.9,13.6c0.9,7.1-1.4,12.8-7.5,16.9c-1.4,0.9-2.8,1.8-4.2,2.7c-0.3,0.2-0.6,0.5-1,0.3
			c1.6-1.8,3.1-3.5,4.7-5.3c0.4-0.4,0.6-0.7-0.1-1.1c-4.9-2.8-9.7-5.7-14.6-8.5c-0.3-0.3-0.6-0.6-1-0.8c-0.6-0.5-0.6-1.1-0.4-1.7
			c0.2-0.7,0.9-0.3,1.3-0.4c1,1,2.3,1.5,3.5,2.2c4.2,2.5,8.5,5,12.7,7.5c1.1,0.7,1.2-0.3,1.7-0.8c0.5-0.6,0.3-0.9-0.3-1.3
			c-5.4-3.2-10.8-6.3-16.2-9.5c-0.3-0.2-0.4-0.3-0.8-0.6c-0.3-0.2-0.4-0.3-1-0.6c-0.7-0.3-0.5-1.7,0.2-2.1c0.5-0.3,0.9,0.5,1.4,0.3
			c1.9,1.5,4.1,2.5,6.1,3.7c3.7,2.2,7.4,4.4,11.2,6.5c0.3,0.2,0.6,0.7,1,0.1c0.6-0.9,0.3-2.2-0.6-2.7c-5.2-3.1-10.5-6.1-15.7-9.2
			c-0.3-0.2-0.6-0.4-1-0.4c0-0.3-0.3-0.4-0.5-0.6c-0.5-0.4-1.1-1-0.8-1.8c0.4-0.8,1-0.6,1.7-0.2c0.4,0.2,0.8,0.7,1.4,0.6
			c0.2,0.1,0.3,0.3,0.5,0.4c5,2.9,9.9,5.8,14.9,8.7c0.1,0.1,0.3,0.1,0.4,0.1c0.1-1.8-0.3-3.1-2.1-4c-3.7-2-7.3-4.2-11-6.4
			c-0.4-0.2-0.7-0.5-1.2-0.5c-0.3-0.3-0.5-0.6-0.8-0.9c-0.4-0.5-0.4-1,0.1-1.5c0.4-0.4,0.7-0.4,1.2-0.1c0.6,0.3,1.2,0.8,1.9,0.8
			c0,0.2,0.1,0.4,0.3,0.5c3.4,1.9,6.7,3.9,10.1,5.8c0.1,0.1,0.2,0.1,0.3,0c0,0-0.1-0.1-0.1-0.2c-0.3-1.7-0.8-3.2-2.6-4.1
			c-1.9-0.9-3.7-2.1-5.6-3.2c-0.1-0.1-0.1-0.2-0.2-0.3c-0.4-0.4-1.1-0.8-0.5-1.5c0.6-0.7,1.2-0.6,1.8-0.1c0.4,0.3,0.9,0.4,1.4,0.6
			c1,0.7,2.1,1.4,3.5,2c-0.5-1.2-0.8-2.1-1.2-3c0.1-1-0.9-1.7-0.9-2.6C131.7,101.4,131.4,101.2,131,101z"/>
		<path class="st3" d="M131.8,81.3c0.6-0.7,0.6-1.6,1.3-2.2c1.3,0.4,2.7,0.8,4,1.3c4.7,1.5,9.5,3,14.2,4.5c0.3,0.1,0.7,0.5,1.1,0
			c0.6-0.9,0.2-2.2-0.9-2.5c-1-0.3-2-0.6-3-1c-4.7-1.5-9.3-3-14-4.5c0.2-0.9,1-1.4,1.7-1.9c5.1,1.6,10.1,3.2,15.2,4.8
			c1.3,0.4,1.3,0.4,1.3-0.9c0-2.4,0-4.9,0-7.6c0.6,0.5,0.5,1,0.6,1.4c0.6,2.7,1.4,5.3,1.7,8.1c0.7,6.4-1.8,11.6-6.9,15.5
			c-3.6,2.8-7.7,4.8-12,6.5c-0.7-0.4-1-1.1-1.1-1.8c-0.1-0.6-0.2-1.2-0.5-1.8c0.8-0.4,1.7-0.7,2.8-1.2c-1.4-0.5-2.5-0.8-3.5-1.2
			c-1-0.7-0.7-1.7-0.7-2.6c1.9,0.6,3.9,1,5.7,1.8c1.9,0.8,3.1-0.1,4.7-1.1c-4-1.2-7.7-2.6-11.6-3.6c-0.2-0.9-0.4-1.9-0.6-2.8
			c4.4,1.4,8.7,2.8,13.1,4.2c2,0.7,2.5,0.5,3.9-1.3c-5.7-1.8-11.4-3.6-17.1-5.4c0-0.8,0-1.7,0-2.5c3.7,1.2,7.4,2.3,11.1,3.5
			c2.4,0.8,4.9,1.6,7.3,2.3c1.3,0.4,1.3-0.9,1.6-1.5c0.4-0.7-0.4-0.7-0.8-0.8c-3.9-1.3-7.7-2.5-11.6-3.7
			C136.5,82.7,134.2,81.8,131.8,81.3z"/>
		<path class="st3" d="M118.8,115.1c-0.5,0.2-0.9-0.5-1.4-0.3c-0.7,0.4-0.9,1.7-0.2,2.1c0.4,0.2,0.6,0.4,1,0.6
			c-0.1,0.6-0.3,1.8-0.4,2.4c-0.5,0.1-1.1-0.3-1.3,0.4c-0.2,0.6-0.2,1.3,0.4,1.7c0.3,0.3,0.6,0.6,1,0.8c-0.1,0.2-0.1,0.3-0.2,0.5
			c-0.2,0.7-0.6,1.5-1.5,1.3c-0.7-0.1-0.5-1-0.6-1.5c-1.2-7.1,1-12.9,6.8-17.3c2.7-2,5.6-3.6,8.7-5c0.4,0.2,0.7,0.4,0.7,0.9
			c0,0.9,1,1.6,0.9,2.6c-0.8,0.3-1.5,0.7-2.3,1c-0.5-0.2-1-0.3-1.4-0.6c-0.7-0.5-1.3-0.6-1.8,0.1c-0.6,0.8,0.1,1.1,0.5,1.5
			c0.1,0.1,0.1,0.2,0.2,0.3c-0.8,0.4-1.5,0.8-2.3,1.2c-0.8,0.1-1.3-0.4-1.9-0.8c-0.5-0.3-0.8-0.3-1.2,0.1c-0.4,0.5-0.4,1-0.1,1.5
			c0.2,0.3,0.5,0.6,0.8,0.9c-0.5,0.5-1.1,1-1.6,1.6c-0.6,0.1-1-0.3-1.4-0.6c-0.7-0.4-1.3-0.6-1.7,0.2c-0.4,0.8,0.2,1.3,0.8,1.8
			c0.2,0.2,0.5,0.2,0.5,0.6C119.4,113.9,119.1,114.5,118.8,115.1z"/>
		<path class="st3" d="M188.9,137.2c-0.7,0.4-1.2,0.8-1.9,1c-2,0.4-3.8-0.3-4.7-2c-1-1.8-0.7-4.3,0.7-5.7c1.3-1.3,3.4-1.5,5.2-0.5
			c0.4,0.2,0.6,0.5,0.9-0.2c0.2-0.7,1-0.3,1.6-0.3c0.6,0,0.4,0.5,0.4,0.8c0,2.6,0,5.2,0,7.8c0,2-1.3,3.5-3.3,3.9
			c-1.6,0.4-3.2,0.2-4.7-0.6c-0.5-0.2-0.9-0.5-0.5-1.1c0.3-0.5,0.6-0.9,1.3-0.4c0.7,0.5,1.5,0.6,2.4,0.6
			C188.2,140.3,189.1,139.3,188.9,137.2z M189,133.9c0-1.6-1.1-2.8-2.6-2.9c-1.5,0-2.7,1.2-2.7,2.8c0,1.7,1.1,2.9,2.7,2.9
			C187.9,136.7,189,135.5,189,133.9z"/>
		<path class="st2" d="M32.2,137.7c-2.5,1.6-4.8,1.5-6.3-0.2c-1.5-1.7-1.6-4.9-0.1-6.7c1.5-1.8,3.8-1.9,6.5-0.2c0-1.4,0.1-2.6,0-3.9
			c-0.1-1.1,0.6-0.9,1.2-0.9c0.7,0,1.1,0,1.1,0.9c-0.1,3.6,0,7.2,0,10.8c0,0.4,0.4,1.3-0.5,1.3C33.2,138.7,32.1,139.2,32.2,137.7z
			 M32.3,134c0-1.6-1.2-2.8-2.7-2.8c-1.5,0-2.7,1.2-2.6,2.9c0,1.6,1.2,2.8,2.7,2.7C31.2,136.9,32.3,135.6,32.3,134z"/>
		<path class="st2" d="M21.7,135.3c0,0.8,0,1.7,0,2.5c0,0.3,0.2,0.8-0.3,0.9c-0.6,0-1.6,0.4-1.9-0.2c-0.3-0.7-0.4-0.4-0.8-0.2
			c-1.1,0.7-2.3,0.8-3.6,0.4c-1.3-0.4-2-1.5-2-2.8c0-1.3,0.7-2.1,2-2.5c1.1-0.4,2.3-0.2,3.5-0.2c0.9,0,0.9-0.5,0.6-1.1
			c-0.3-0.6-0.9-0.8-1.5-0.9c-0.8-0.1-1.6,0-2.3,0.4c-0.8,0.5-1.1,0.1-1.4-0.6c-0.5-0.9,0.3-0.9,0.7-1.1c1.4-0.7,2.9-0.8,4.4-0.5
			c1.6,0.4,2.4,1.3,2.5,3C21.7,133.4,21.7,134.3,21.7,135.3C21.7,135.3,21.7,135.3,21.7,135.3z M17,137c0.9,0,1.6-0.2,2.2-1
			c0.3-0.3,0.3-0.8,0.2-1.1c-0.1-0.5-0.6-0.3-0.9-0.3c-0.6,0-1.1,0-1.7,0c-0.7,0.1-1.5,0.2-1.4,1.2C15.4,136.8,16.2,137,17,137z"/>
		<path class="st2" d="M57.3,135.2c0,0.8,0,1.5,0,2.3c0,0.4,0.3,1.2-0.4,1.2c-0.6,0-1.5,0.6-1.9-0.5c-0.2-0.5-0.4-0.1-0.6,0
			c-1,0.6-2.2,0.8-3.3,0.5c-1.5-0.4-2.4-1.4-2.3-2.9c0-1.3,0.9-2.3,2.4-2.6c1-0.2,2-0.1,3-0.1c0.3,0,0.7,0.2,0.8-0.3
			c0.1-0.3,0-0.6-0.2-0.9c-0.3-0.5-0.8-0.7-1.4-0.8c-0.8-0.1-1.6,0-2.3,0.4c-0.7,0.4-1,0.2-1.4-0.5c-0.4-0.8,0.1-1,0.6-1.2
			c1.3-0.6,2.7-0.8,4.1-0.6c1.8,0.2,2.9,1.4,2.9,3.2C57.3,133.4,57.2,134.3,57.3,135.2C57.2,135.2,57.2,135.2,57.3,135.2z
			 M53.4,134.6c-0.3,0-0.5,0-0.7,0c-0.8,0.1-1.8,0-1.8,1.2c0,0.9,0.8,1.3,2.1,1.2c0.2,0,0.3,0,0.5-0.1c0.8-0.3,1.6-0.7,1.5-1.7
			C54.8,134,53.8,134.9,53.4,134.6z"/>
		<path class="st2" d="M89.2,129.3c2.8,0,4.6,2,4.4,4.8c0,0.6-0.3,0.7-0.8,0.7c-1.7,0-3.4,0-5.1,0c-0.3,0-0.6-0.1-0.8,0.2
			c-0.2,0.3,0.1,0.6,0.3,0.9c0.8,1.2,2.6,1.5,4,0.5c0.9-0.7,1.3-0.1,1.7,0.5c0.5,0.7-0.3,0.9-0.7,1.1c-1.8,1.2-4.4,1.1-6-0.1
			c-1.5-1.1-2.1-3.1-1.6-5.2C85,130.6,86.8,129.3,89.2,129.3z M88.9,133.3c0.6,0,1.2,0,1.8,0c0.8,0,0.8-0.3,0.5-0.9
			c-0.3-0.8-1-1.2-1.8-1.3c-1-0.1-1.8,0.2-2.4,1c-0.2,0.3-0.5,0.6-0.4,1c0.2,0.4,0.6,0.2,0.9,0.2C88.1,133.4,88.5,133.3,88.9,133.3z
			"/>
		<path class="st2" d="M63.3,131c1.1-1.2,2.1-1.7,3.2-1.7c2.2,0,3.5,1.1,3.6,3.3c0.1,1.8,0,3.6,0,5.4c0,1.1-0.8,0.7-1.3,0.7
			c-0.6,0.1-1.1,0.1-1.1-0.8c0.1-1.3,0-2.6,0-4c0-1.6-0.7-2.4-2-2.5c-1.4-0.1-2.5,0.9-2.5,2.5c-0.1,1.3-0.1,2.6,0,3.8
			c0.1,1.1-0.6,0.9-1.3,1c-0.7,0.1-1.1,0-1.1-0.9c0.1-2.4,0-4.7,0-7.1c0-0.6-0.3-1.4,0.9-1.4C62.9,129.3,63.6,129.3,63.3,131z"/>
		<path class="st3" d="M178.7,135.2c0,0.8,0,1.5,0,2.3c0,0.4,0.3,1-0.3,1.1c-0.6,0.1-1.4,0.5-1.8-0.4c-0.3-0.6-0.5-0.1-0.7,0
			c-1.1,0.6-2.3,0.7-3.5,0.4c-1.3-0.4-2.1-1.4-2.1-2.7c0-1.4,0.7-2.3,2.1-2.6c1.1-0.3,2.2-0.2,3.3-0.2c0.9,0,0.9-0.4,0.6-1.1
			c-0.4-0.9-1.3-1-2.1-1.1c-0.6,0-1.3,0.2-1.8,0.5c-0.7,0.5-1,0.2-1.4-0.4c-0.4-0.8,0.2-0.9,0.6-1.1c1.4-0.7,2.9-0.9,4.4-0.5
			c1.5,0.3,2.4,1.3,2.4,2.9C178.7,133.3,178.7,134.3,178.7,135.2C178.7,135.2,178.7,135.2,178.7,135.2z M174.6,134.6
			c-0.2,0-0.6,0-1.1,0.1c-0.6,0.1-1.2,0.3-1.2,1.1c0,0.7,0.4,1.1,1,1.3c1,0.3,1.9,0.1,2.7-0.5c0.5-0.4,0.8-1,0.6-1.6
			c-0.2-0.6-0.8-0.3-1.2-0.3C175.2,134.6,175,134.6,174.6,134.6z"/>
		<path class="st3" d="M197.1,131c1.4-1.4,2.7-1.8,4.2-1.6c1.6,0.3,2.5,1.2,2.7,2.7c0.3,2,0.1,4,0.1,6c0,0.9-0.7,0.6-1.1,0.6
			c-0.4,0-1,0.2-1-0.6c0-1.4,0-2.8,0-4.2c0-1.8-0.7-2.6-2.1-2.6c-1.5,0-2.6,0.9-2.7,2.5c-0.1,1.3-0.1,2.6,0,3.9c0.1,0.9-0.4,1-1.1,1
			c-0.8,0-1-0.3-1-1c0-2.3,0-4.6,0-6.9c0-0.5-0.5-1.4,0.7-1.4C196.7,129.4,197.6,129.3,197.1,131z"/>
		<path class="st3" d="M216.9,134.1c0,2.8-2,4.7-4.8,4.7c-2.9,0-4.9-2-4.9-4.9c0-2.7,2.1-4.6,4.9-4.6
			C214.9,129.3,216.9,131.3,216.9,134.1z M214.8,134.1c0-1.8-1.1-3-2.8-3c-1.7,0-2.9,1.2-2.8,3c0,1.7,1.2,2.9,2.8,2.9
			C213.7,137,214.8,135.8,214.8,134.1z"/>
		<path class="st2" d="M73.2,133.9c0-1.7,0.7-3.2,2.4-4c1.8-0.9,3.7-0.8,5.4,0.3c0.3,0.2,1.2,0.5,0.6,1.1c-0.4,0.5-0.8,1.3-1.7,0.6
			c-1-0.7-2.1-0.8-3.2-0.1c-1,0.6-1.3,1.7-1.1,2.8c0.3,2.1,2.4,2.9,4.4,1.7c0.3-0.2,0.5-0.6,1-0.2c1,0.7,1.1,1.1,0.1,1.8
			c-1.7,1.2-3.6,1.3-5.4,0.4C73.9,137.5,73.2,135.9,73.2,133.9z"/>
		<path class="st2" d="M42.3,136c0.6-1.8,1.2-3.7,1.9-5.5c0.4-1.1,1.1-1.5,2.2-1.2c0.4,0.1,0.4,0.3,0.2,0.6
			c-1.1,2.8-2.1,5.5-3.2,8.3c-0.3,0.7-0.8,0.5-1.3,0.5c-0.5,0-1.1,0.3-1.4-0.5c-1.1-2.8-2.1-5.5-3.2-8.3c-0.1-0.2-0.2-0.4,0.1-0.6
			c0.8-0.4,2.1,0.1,2.4,0.9c0.7,1.9,1.3,3.8,2,5.7C42.1,136,42.2,136,42.3,136z"/>
		<path class="st3" d="M222.8,138.8c-0.9,0-1.9-0.2-2.9-0.7c-0.6-0.3-0.8-0.7-0.5-1.4c0.4-0.8,0.8-0.4,1.2-0.1
			c0.8,0.4,1.6,0.7,2.5,0.6c0.5,0,1.1-0.2,1.2-0.8c0.1-0.6-0.3-1-0.8-1.1c-0.8-0.3-1.6-0.5-2.4-0.9c-1.1-0.5-1.7-1.3-1.6-2.5
			c0.1-1.2,0.8-2,2-2.3c1.4-0.4,2.7-0.2,4,0.3c0.5,0.2,0.9,0.4,0.5,1.1c-0.3,0.5-0.4,1-1.2,0.6c-0.7-0.4-1.4-0.6-2.2-0.5
			c-0.5,0.1-1,0.2-1.1,0.8c-0.1,0.5,0.3,0.8,0.8,1c0.5,0.2,1.1,0.4,1.6,0.6c2,0.7,2.7,1.6,2.5,3.1
			C226.2,137.9,224.9,138.8,222.8,138.8z"/>
		<path class="st3" d="M258.4,129.3c0.9,0,1.7,0.2,2.4,0.5c0.4,0.2,1,0.3,0.6,1.1c-0.3,0.7-0.6,0.9-1.3,0.5
			c-0.7-0.3-1.4-0.5-2.2-0.4c-0.4,0.1-0.9,0.3-0.9,0.8c0,0.5,0.3,0.7,0.7,0.9c0.6,0.2,1.2,0.4,1.8,0.6c1.8,0.6,2.5,1.5,2.4,3
			c-0.1,1.4-1.1,2.2-2.9,2.5c-1.3,0.2-2.5-0.1-3.7-0.7c-0.7-0.3-0.7-0.7-0.4-1.3c0.3-0.7,0.7-0.5,1.1-0.2c0.8,0.5,1.7,0.7,2.6,0.7
			c0.5,0,1.1-0.2,1.2-0.8c0.1-0.6-0.3-1-0.8-1.1c-0.6-0.2-1.2-0.4-1.8-0.6c-1.6-0.6-2.3-1.4-2.2-2.8c0.1-1.3,1-2.2,2.7-2.5
			C257.9,129.3,258.2,129.3,258.4,129.3z"/>
		<path class="st3" d="M243.6,134c0.1-1.7,0.7-3.2,2.4-4.1c1.9-0.9,3.7-0.8,5.5,0.3c0.4,0.2,1,0.5,0.4,1.1c-0.4,0.4-0.6,1.1-1.4,0.5
			c-1.1-0.8-2.4-0.9-3.6-0.1c-1.1,0.7-1.3,1.9-1.1,3.1c0.4,2.1,2.7,3,4.7,1.7c0.8-0.5,1.1-0.3,1.5,0.3c0.6,0.7-0.2,0.9-0.5,1.2
			c-1.7,1.1-3.6,1.3-5.4,0.4C244.2,137.4,243.6,135.9,243.6,134z"/>
		<path class="st3" d="M233,138.8c-1.8,0-2.8-0.9-2.8-2.5c0-1.3,0-2.6,0-4c0-0.6,0.1-1.2-0.8-1.1c-0.4,0-0.6-0.2-0.5-0.6
			c0-0.3-0.1-0.9,0.3-0.9c1.4,0.1,1-0.9,1-1.6c0-0.8,0.3-1,1-1c0.8,0,1.1,0.2,1,1c-0.1,1.9-0.1,1.5,1.6,1.6c0.5,0,1.2-0.2,1.1,0.7
			c0,0.6-0.2,0.8-0.8,0.8c-2,0.1-2,0.1-2,2.1c0,0.8,0,1.6,0,2.4c0,0.9,0.6,1.3,1.4,1.1c0.7-0.2,1.1-0.2,1.3,0.6
			c0.3,0.9-0.4,1-0.9,1.2C233.6,138.8,233.2,138.8,233,138.8z"/>
		<path class="st3" d="M166.9,134.1c0,1.3,0,2.5,0,3.8c0,0.8-0.3,0.9-0.9,0.8c-0.5,0-1.1,0.1-1.1-0.8c0-2.6,0-5.2,0-7.8
			c0-0.8,0.5-0.8,1-0.8c0.5,0,1.1-0.1,1,0.7C166.8,131.5,166.9,132.8,166.9,134.1z"/>
		<path class="st3" d="M238.2,134.1c0-1.3,0-2.6,0-3.8c0-0.9,0.4-0.8,1-0.8c0.6,0,1,0,1,0.9c-0.1,2.5,0,5,0,7.5c0,0.8-0.3,0.9-1,0.9
			c-0.7,0-1.1,0-1.1-0.9C238.2,136.6,238.2,135.3,238.2,134.1z"/>
		<path class="st3" d="M239.2,125.6c0.8,0,1.1,0.5,1.1,1.2c0,0.7-0.5,1.2-1.2,1.2c-0.7,0-1.2-0.5-1.1-1.2
			C238,126,238.5,125.6,239.2,125.6z"/>
		<path class="st3" d="M167,126.7c0,0.8-0.4,1.2-1.1,1.3c-0.7,0-1.2-0.4-1.2-1.2c0-0.7,0.3-1.2,1.1-1.2
			C166.6,125.6,167,126,167,126.7z"/>
		<path class="st3" d="M143.3,103.9c0.1,0.1,0.2,0.1,0.3,0.2c-0.8,0.4-1.6,0.6-2.3,1C141.9,104.7,142.6,104.3,143.3,103.9z"/>
	</g>
</g>
</svg>
